<ttFont>
<head>
    <!-- Most of this table will be recalculated by the compiler -->
    <tableVersion value="1.0"/>
    <fontRevision value="0.0"/>
    <checkSumAdjustment value="0xb2e5dac"/>
    <magicNumber value="0x5f0f3cf5"/>
    <flags value="00000000 00000011"/>
    <unitsPerEm value="1024"/>
    <created value="Mon Feb 15 18:32:37 2021"/>
    <modified value="Mon Feb 15 18:33:08 2021"/>
    <xMin value="-2"/>
    <yMin value="0"/>
    <xMax value="1027"/>
    <yMax value="1024"/>
    <macStyle value="00000000 00000000"/>
    <lowestRecPPEM value="6"/>
    <fontDirectionHint value="2"/>
    <indexToLocFormat value="0"/>
    <glyphDataFormat value="0"/>
  </head>
    <TTGlyph name="glyph00087" xMin="415" yMin="41" xMax="971" yMax="561">
      <contour>
        <pt x="415" y="153" on="1"/>
        <pt x="423" y="190" on="0"/>
        <pt x="454" y="268" on="0"/>
        <pt x="497" y="337" on="0"/>
        <pt x="522" y="359" on="1"/>
        <pt x="567" y="401" on="0"/>
        <pt x="675" y="453" on="0"/>
        <pt x="792" y="491" on="0"/>
        <pt x="911" y="531" on="0"/>
        <pt x="967" y="561" on="1"/>
        <pt x="967" y="554" on="0"/>
        <pt x="968" y="499" on="0"/>
        <pt x="970" y="425" on="0"/>
        <pt x="971" y="351" on="0"/>
        <pt x="971" y="299" on="0"/>
        <pt x="971" y="296" on="1"/>
        <pt x="969" y="286" on="0"/>
        <pt x="950" y="264" on="0"/>
        <pt x="913" y="245" on="1"/>
        <pt x="901" y="239" on="0"/>
        <pt x="831" y="204" on="0"/>
        <pt x="736" y="158" on="0"/>
        <pt x="636" y="109" on="0"/>
        <pt x="549" y="67" on="0"/>
        <pt x="495" y="41" on="0"/>
        <pt x="495" y="41" on="1"/>
      </contour>
    </TTGlyph>
    <TTGlyph name="glyph00088" xMin="79" yMin="153" xMax="992" yMax="824">
      <contour>
        <pt x="990" y="652" on="1"/>
        <pt x="992" y="606" on="0"/>
        <pt x="968" y="562" on="0"/>
        <pt x="968" y="562" on="1"/>
        <pt x="968" y="560" on="1"/>
        <pt x="911" y="530" on="0"/>
        <pt x="791" y="489" on="0"/>
        <pt x="673" y="451" on="0"/>
        <pt x="565" y="399" on="0"/>
        <pt x="520" y="357" on="1"/>
        <pt x="483" y="323" on="0"/>
        <pt x="427" y="208" on="0"/>
        <pt x="415" y="153" on="1"/>
        <pt x="79" y="633" on="1"/>
        <pt x="85" y="636" on="1"/>
        <pt x="85" y="636" on="0"/>
        <pt x="128" y="651" on="0"/>
        <pt x="197" y="676" on="0"/>
        <pt x="276" y="705" on="0"/>
        <pt x="348" y="733" on="0"/>
        <pt x="399" y="754" on="0"/>
        <pt x="404" y="759" on="1"/>
        <pt x="415" y="768" on="0"/>
        <pt x="467" y="792" on="0"/>
        <pt x="524" y="812" on="0"/>
        <pt x="540" y="815" on="1"/>
        <pt x="555" y="818" on="0"/>
        <pt x="628" y="824" on="0"/>
        <pt x="727" y="816" on="0"/>
        <pt x="783" y="800" on="1"/>
        <pt x="838" y="785" on="0"/>
        <pt x="931" y="748" on="0"/>
        <pt x="988" y="694" on="0"/>
      </contour>
    </TTGlyph>
    <TTGlyph name="glyph00089" xMin="28" yMin="35" xMax="561" yMax="641">
      <contour>
        <pt x="42" y="598" on="1"/>
        <pt x="55" y="622" on="0"/>
        <pt x="93" y="641" on="0"/>
        <pt x="118" y="640" on="1"/>
        <pt x="146" y="640" on="0"/>
        <pt x="201" y="627" on="0"/>
        <pt x="228" y="619" on="1"/>
        <pt x="256" y="611" on="0"/>
        <pt x="314" y="596" on="0"/>
        <pt x="344" y="594" on="1"/>
        <pt x="369" y="593" on="0"/>
        <pt x="418" y="588" on="0"/>
        <pt x="443" y="585" on="1"/>
        <pt x="479" y="580" on="0"/>
        <pt x="539" y="548" on="0"/>
        <pt x="552" y="511" on="1"/>
        <pt x="561" y="487" on="0"/>
        <pt x="559" y="435" on="0"/>
        <pt x="553" y="411" on="1"/>
        <pt x="551" y="400" on="0"/>
        <pt x="541" y="381" on="0"/>
        <pt x="534" y="372" on="1"/>
        <pt x="533" y="370" on="0"/>
        <pt x="522" y="360" on="0"/>
        <pt x="522" y="358" on="1"/>
        <pt x="520" y="311" on="0"/>
        <pt x="517" y="217" on="0"/>
        <pt x="517" y="170" on="1"/>
        <pt x="517" y="150" on="0"/>
        <pt x="517" y="109" on="0"/>
        <pt x="516" y="89" on="1"/>
        <pt x="515" y="76" on="0"/>
        <pt x="508" y="49" on="0"/>
        <pt x="495" y="41" on="1"/>
        <pt x="486" y="35" on="0"/>
        <pt x="456" y="36" on="0"/>
        <pt x="445" y="37" on="1"/>
        <pt x="424" y="39" on="0"/>
        <pt x="383" y="46" on="0"/>
        <pt x="363" y="50" on="1"/>
        <pt x="318" y="59" on="0"/>
        <pt x="229" y="81" on="0"/>
        <pt x="185" y="92" on="1"/>
        <pt x="163" y="98" on="0"/>
        <pt x="117" y="113" on="0"/>
        <pt x="98" y="126" on="1"/>
        <pt x="85" y="136" on="0"/>
        <pt x="75" y="174" on="0"/>
        <pt x="75" y="216" on="0"/>
        <pt x="75" y="231" on="1"/>
        <pt x="76" y="266" on="0"/>
        <pt x="75" y="336" on="0"/>
        <pt x="76" y="371" on="1"/>
        <pt x="76" y="393" on="0"/>
        <pt x="79" y="435" on="0"/>
        <pt x="70" y="456" on="1"/>
        <pt x="61" y="477" on="0"/>
        <pt x="34" y="514" on="0"/>
        <pt x="32" y="538" on="1"/>
        <pt x="28" y="571" on="0"/>
      </contour>
    </TTGlyph>
    <TTGlyph name="glyph00090" xMin="160" yMin="442" xMax="199" yMax="486">
      <contour>
        <pt x="160" y="458" on="1"/>
        <pt x="160" y="446" on="0"/>
        <pt x="174" y="442" on="0"/>
        <pt x="190" y="447" on="0"/>
        <pt x="194" y="449" on="1"/>
        <pt x="199" y="451" on="0"/>
        <pt x="198" y="470" on="0"/>
        <pt x="188" y="478" on="1"/>
        <pt x="178" y="486" on="0"/>
        <pt x="160" y="466" on="0"/>
      </contour>
    </TTGlyph>
    <TTGlyph name="glyph00091" xMin="209" yMin="408" xMax="234" yMax="430">
      <contour>
        <pt x="211" y="415" on="1"/>
        <pt x="209" y="419" on="0"/>
        <pt x="217" y="430" on="0"/>
        <pt x="226" y="427" on="1"/>
        <pt x="234" y="424" on="0"/>
        <pt x="226" y="415" on="0"/>
        <pt x="226" y="415" on="1"/>
        <pt x="226" y="415" on="0"/>
        <pt x="214" y="408" on="0"/>
      </contour>
    </TTGlyph>
    <TTGlyph name="glyph00092" xMin="103" yMin="489" xMax="121" yMax="505">
      <contour>
        <pt x="104" y="494" on="1"/>
        <pt x="103" y="497" on="0"/>
        <pt x="109" y="505" on="0"/>
        <pt x="115" y="503" on="1"/>
        <pt x="121" y="501" on="0"/>
        <pt x="115" y="494" on="0"/>
        <pt x="115" y="494" on="1"/>
        <pt x="115" y="494" on="0"/>
        <pt x="106" y="489" on="0"/>
      </contour>
    </TTGlyph>
    <TTGlyph name="glyph00093" xMin="199" yMin="401" xMax="399" yMax="549">
      <component glyphName="glyph00094" x="0" y="0" flags="0x4"/>
      <component glyphName="glyph00094" x="178" y="-134" flags="0x4"/>
    </TTGlyph>
    <TTGlyph name="glyph00094" xMin="199" yMin="535" xMax="221" yMax="549">
      <contour>
        <pt x="201" y="543" on="1"/>
        <pt x="202" y="547" on="0"/>
        <pt x="213" y="549" on="0"/>
        <pt x="217" y="543" on="1"/>
        <pt x="221" y="536" on="0"/>
        <pt x="210" y="535" on="0"/>
        <pt x="210" y="535" on="1"/>
        <pt x="210" y="535" on="0"/>
        <pt x="199" y="537" on="0"/>
      </contour>
    </TTGlyph>
    <TTGlyph name="glyph00095" xMin="459" yMin="275" xMax="478" yMax="292">
      <contour>
        <pt x="460" y="280" on="1"/>
        <pt x="459" y="284" on="0"/>
        <pt x="465" y="292" on="0"/>
        <pt x="471" y="290" on="1"/>
        <pt x="478" y="287" on="0"/>
        <pt x="471" y="280" on="0"/>
        <pt x="471" y="280" on="1"/>
        <pt x="471" y="280" on="0"/>
        <pt x="463" y="275" on="0"/>
      </contour>
    </TTGlyph>
    <TTGlyph name="glyph00096" xMin="131" yMin="130" xMax="393" yMax="258">
      <component glyphName="glyph00097" x="0" y="0" flags="0x4"/>
      <component glyphName="glyph00097" x="-14" y="173" scalex="0.563" scale01="-0.662" scale10="0.662" scaley="0.563" flags="0x4"/>
      <component glyphName="glyph00097" x="531" y="-55" scalex="0.285" scale01="0.861" scale10="-0.861" scaley="0.285" flags="0x4"/>
      <component glyphName="glyph00097" x="249" y="-81" scalex="0.219" scale01="0.662" scale10="-0.662" scaley="0.219" flags="0x4"/>
    </TTGlyph>
    <TTGlyph name="glyph00097" xMin="236" yMin="240" xMax="257" yMax="258">
      <contour>
        <pt x="238" y="246" on="1"/>
        <pt x="236" y="249" on="0"/>
        <pt x="243" y="258" on="0"/>
        <pt x="250" y="256" on="1"/>
        <pt x="257" y="253" on="0"/>
        <pt x="250" y="246" on="0"/>
        <pt x="250" y="246" on="1"/>
        <pt x="250" y="246" on="0"/>
        <pt x="240" y="240" on="0"/>
      </contour>
    </TTGlyph>
    <TTGlyph name="glyph00098" xMin="428" yMin="227" xMax="437" yMax="239">
      <contour>
        <pt x="430" y="229" on="1"/>
        <pt x="428" y="230" on="0"/>
        <pt x="428" y="237" on="0"/>
        <pt x="432" y="238" on="1"/>
        <pt x="437" y="239" on="0"/>
        <pt x="436" y="233" on="0"/>
        <pt x="436" y="233" on="1"/>
        <pt x="436" y="233" on="0"/>
        <pt x="433" y="227" on="0"/>
      </contour>
    </TTGlyph>
    <TTGlyph name="glyph00099" xMin="248" yMin="315" xMax="265" yMax="332">
      <contour>
        <pt x="250" y="320" on="1"/>
        <pt x="248" y="323" on="0"/>
        <pt x="251" y="332" on="0"/>
        <pt x="258" y="332" on="1"/>
        <pt x="265" y="332" on="0"/>
        <pt x="261" y="323" on="0"/>
        <pt x="261" y="323" on="1"/>
        <pt x="261" y="323" on="0"/>
        <pt x="254" y="315" on="0"/>
      </contour>
    </TTGlyph>
    <TTGlyph name="glyph00100" xMin="414" yMin="488" xMax="430" yMax="505">
      <contour>
        <pt x="416" y="493" on="1"/>
        <pt x="414" y="496" on="0"/>
        <pt x="417" y="505" on="0"/>
        <pt x="424" y="504" on="1"/>
        <pt x="430" y="504" on="0"/>
        <pt x="426" y="496" on="0"/>
        <pt x="426" y="496" on="1"/>
        <pt x="426" y="496" on="0"/>
        <pt x="420" y="488" on="0"/>
      </contour>
    </TTGlyph>
    <TTGlyph name="glyph00101" xMin="248" yMin="325" xMax="457" yMax="496">
      <component glyphName="glyph00102" x="0" y="0" flags="0x4"/>
      <component glyphName="glyph00102" x="-141" y="187" scalex="0.893" scale01="0.005" scale10="-0.005" scaley="0.893" flags="0x4"/>
      <component glyphName="glyph00102" x="123" y="194" scale="0.592" flags="0x4"/>
    </TTGlyph>
    <TTGlyph name="glyph00102" xMin="438" yMin="325" xMax="457" yMax="344">
      <contour>
        <pt x="441" y="330" on="1"/>
        <pt x="438" y="334" on="0"/>
        <pt x="442" y="344" on="0"/>
        <pt x="450" y="344" on="1"/>
        <pt x="457" y="344" on="0"/>
        <pt x="453" y="334" on="0"/>
        <pt x="453" y="334" on="1"/>
        <pt x="453" y="334" on="0"/>
        <pt x="445" y="325" on="0"/>
      </contour>
    </TTGlyph>
    <TTGlyph name="glyph00103" xMin="94" yMin="347" xMax="450" yMax="451">
      <component glyphName="glyph00104" x="0" y="0" flags="0x4"/>
      <component glyphName="glyph00104" x="35" y="-142" scalex="1.122" scale01="-0.004" scale10="0.004" scaley="1.122" flags="0x4"/>
      <component glyphName="glyph00104" x="341" y="-4" flags="0x4"/>
    </TTGlyph>
    <TTGlyph name="glyph00104" xMin="94" yMin="436" xMax="109" yMax="451">
      <contour>
        <pt x="96" y="440" on="1"/>
        <pt x="94" y="442" on="0"/>
        <pt x="97" y="451" on="0"/>
        <pt x="103" y="451" on="1"/>
        <pt x="109" y="451" on="0"/>
        <pt x="106" y="443" on="0"/>
        <pt x="106" y="443" on="1"/>
        <pt x="106" y="443" on="0"/>
        <pt x="99" y="436" on="0"/>
      </contour>
    </TTGlyph>
    <TTGlyph name="glyph00105" xMin="134" yMin="261" xMax="155" yMax="294">
      <contour>
        <pt x="143" y="264" on="1"/>
        <pt x="138" y="266" on="0"/>
        <pt x="134" y="283" on="0"/>
        <pt x="144" y="288" on="1"/>
        <pt x="153" y="294" on="0"/>
        <pt x="155" y="278" on="0"/>
        <pt x="155" y="278" on="1"/>
        <pt x="155" y="278" on="0"/>
        <pt x="153" y="261" on="0"/>
      </contour>
    </TTGlyph>
    <TTGlyph name="glyph00106" xMin="158" yMin="175" xMax="216" yMax="236">
      <contour>
        <pt x="213" y="221" on="1"/>
        <pt x="207" y="236" on="0"/>
        <pt x="187" y="234" on="0"/>
        <pt x="168" y="219" on="0"/>
        <pt x="164" y="215" on="1"/>
        <pt x="158" y="210" on="0"/>
        <pt x="169" y="185" on="0"/>
        <pt x="186" y="179" on="1"/>
        <pt x="198" y="175" on="0"/>
        <pt x="212" y="191" on="0"/>
        <pt x="216" y="213" on="0"/>
      </contour>
    </TTGlyph>
    <TTGlyph name="glyph00107" xMin="306" yMin="209" xMax="451" yMax="325">
      <component glyphName="glyph00108" x="0" y="0" flags="0x4"/>
      <component glyphName="glyph00108" x="-81" y="204" scalex="0.87" scale01="-0.745" scale10="0.745" scaley="0.87" flags="0x4"/>
    </TTGlyph>
    <TTGlyph name="glyph00108" xMin="306" yMin="294" xMax="337" yMax="325">
      <contour>
        <pt x="314" y="320" on="1"/>
        <pt x="319" y="325" on="0"/>
        <pt x="337" y="320" on="0"/>
        <pt x="337" y="307" on="1"/>
        <pt x="337" y="294" on="0"/>
        <pt x="321" y="301" on="0"/>
        <pt x="321" y="301" on="1"/>
        <pt x="321" y="301" on="0"/>
        <pt x="306" y="313" on="0"/>
      </contour>
    </TTGlyph>
    <TTGlyph name="glyph00109" xMin="28" yMin="36" xMax="992" yMax="822">
      <contour>
        <pt x="624" y="798" on="1"/>
        <pt x="597" y="798" on="0"/>
        <pt x="556" y="794" on="0"/>
        <pt x="545" y="791" on="1"/>
        <pt x="529" y="788" on="0"/>
        <pt x="476" y="769" on="0"/>
        <pt x="428" y="747" on="0"/>
        <pt x="419" y="740" on="1"/>
        <pt x="413" y="735" on="0"/>
        <pt x="359" y="711" on="0"/>
        <pt x="281" y="681" on="0"/>
        <pt x="195" y="650" on="0"/>
        <pt x="116" y="621" on="0"/>
        <pt x="88" y="611" on="1"/>
        <pt x="73" y="605" on="0"/>
        <pt x="64" y="587" on="1"/>
        <pt x="53" y="567" on="0"/>
        <pt x="56" y="541" on="1"/>
        <pt x="57" y="530" on="0"/>
        <pt x="67" y="510" on="0"/>
        <pt x="74" y="499" on="1"/>
        <pt x="79" y="491" on="0"/>
        <pt x="88" y="475" on="0"/>
        <pt x="92" y="465" on="1"/>
        <pt x="100" y="445" on="0"/>
        <pt x="102" y="407" on="0"/>
        <pt x="100" y="388" on="1"/>
        <pt x="100" y="384" on="0"/>
        <pt x="100" y="375" on="0"/>
        <pt x="100" y="370" on="1"/>
        <pt x="99" y="353" on="0"/>
        <pt x="99" y="317" on="0"/>
        <pt x="99" y="300" on="1"/>
        <pt x="99" y="283" on="0"/>
        <pt x="99" y="248" on="0"/>
        <pt x="99" y="231" on="1"/>
        <pt x="99" y="225" on="1"/>
        <pt x="99" y="215" on="0"/>
        <pt x="99" y="182" on="0"/>
        <pt x="105" y="151" on="0"/>
        <pt x="112" y="146" on="1"/>
        <pt x="128" y="134" on="0"/>
        <pt x="171" y="121" on="0"/>
        <pt x="191" y="116" on="1"/>
        <pt x="206" y="112" on="1"/>
        <pt x="246" y="102" on="0"/>
        <pt x="327" y="82" on="0"/>
        <pt x="367" y="73" on="1"/>
        <pt x="390" y="69" on="0"/>
        <pt x="428" y="63" on="0"/>
        <pt x="447" y="61" on="1"/>
        <pt x="450" y="61" on="0"/>
        <pt x="452" y="61" on="1"/>
        <pt x="456" y="60" on="0"/>
        <pt x="465" y="60" on="0"/>
        <pt x="469" y="60" on="1"/>
        <pt x="476" y="60" on="0"/>
        <pt x="482" y="61" on="0"/>
        <pt x="482" y="61" on="1"/>
        <pt x="488" y="64" on="0"/>
        <pt x="494" y="64" on="1"/>
        <pt x="508" y="71" on="0"/>
        <pt x="573" y="103" on="0"/>
        <pt x="658" y="145" on="0"/>
        <pt x="748" y="190" on="0"/>
        <pt x="831" y="230" on="0"/>
        <pt x="891" y="261" on="0"/>
        <pt x="902" y="266" on="1"/>
        <pt x="933" y="283" on="0"/>
        <pt x="946" y="297" on="0"/>
        <pt x="947" y="299" on="1"/>
        <pt x="947" y="305" on="0"/>
        <pt x="947" y="361" on="0"/>
        <pt x="946" y="440" on="0"/>
        <pt x="944" y="525" on="0"/>
        <pt x="944" y="560" on="1"/>
        <pt x="944" y="569" on="0"/>
        <pt x="949" y="576" on="1"/>
        <pt x="950" y="576" on="0"/>
        <pt x="968" y="613" on="0"/>
        <pt x="966" y="651" on="1"/>
        <pt x="964" y="697" on="0"/>
        <pt x="867" y="752" on="0"/>
        <pt x="777" y="777" on="1"/>
        <pt x="731" y="790" on="0"/>
        <pt x="651" y="798" on="0"/>
      </contour>
      <contour>
        <pt x="624" y="822" on="1"/>
        <pt x="657" y="822" on="0"/>
        <pt x="739" y="813" on="0"/>
        <pt x="783" y="800" on="1"/>
        <pt x="839" y="785" on="0"/>
        <pt x="931" y="748" on="0"/>
        <pt x="988" y="694" on="0"/>
        <pt x="990" y="652" on="1"/>
        <pt x="992" y="606" on="0"/>
        <pt x="968" y="560" on="0"/>
        <pt x="968" y="560" on="1"/>
        <pt x="968" y="560" on="0"/>
        <pt x="969" y="509" on="0"/>
        <pt x="970" y="433" on="0"/>
        <pt x="971" y="355" on="0"/>
        <pt x="971" y="300" on="0"/>
        <pt x="971" y="296" on="1"/>
        <pt x="969" y="286" on="0"/>
        <pt x="949" y="265" on="0"/>
        <pt x="913" y="245" on="1"/>
        <pt x="901" y="239" on="0"/>
        <pt x="831" y="204" on="0"/>
        <pt x="736" y="157" on="0"/>
        <pt x="636" y="107" on="0"/>
        <pt x="549" y="65" on="0"/>
        <pt x="495" y="38" on="0"/>
        <pt x="495" y="38" on="1"/>
        <pt x="494" y="40" on="1"/>
        <pt x="489" y="38" on="0"/>
        <pt x="476" y="36" on="0"/>
        <pt x="469" y="36" on="1"/>
        <pt x="463" y="36" on="0"/>
        <pt x="450" y="37" on="0"/>
        <pt x="445" y="37" on="1"/>
        <pt x="424" y="39" on="0"/>
        <pt x="383" y="46" on="0"/>
        <pt x="363" y="50" on="1"/>
        <pt x="318" y="59" on="0"/>
        <pt x="229" y="81" on="0"/>
        <pt x="185" y="92" on="1"/>
        <pt x="163" y="98" on="0"/>
        <pt x="117" y="113" on="0"/>
        <pt x="98" y="126" on="1"/>
        <pt x="85" y="136" on="0"/>
        <pt x="75" y="174" on="0"/>
        <pt x="75" y="216" on="0"/>
        <pt x="75" y="231" on="1"/>
        <pt x="76" y="266" on="0"/>
        <pt x="75" y="336" on="0"/>
        <pt x="76" y="371" on="1"/>
        <pt x="76" y="393" on="0"/>
        <pt x="79" y="435" on="0"/>
        <pt x="70" y="456" on="1"/>
        <pt x="61" y="477" on="0"/>
        <pt x="34" y="514" on="0"/>
        <pt x="32" y="538" on="1"/>
        <pt x="28" y="571" on="0"/>
        <pt x="42" y="598" on="1"/>
        <pt x="56" y="624" on="0"/>
        <pt x="79" y="634" on="1"/>
        <pt x="79" y="634" on="0"/>
        <pt x="123" y="649" on="0"/>
        <pt x="193" y="675" on="0"/>
        <pt x="273" y="704" on="0"/>
        <pt x="347" y="733" on="0"/>
        <pt x="399" y="754" on="0"/>
        <pt x="404" y="759" on="1"/>
        <pt x="415" y="768" on="0"/>
        <pt x="468" y="792" on="0"/>
        <pt x="524" y="812" on="0"/>
        <pt x="540" y="815" on="1"/>
        <pt x="551" y="817" on="0"/>
        <pt x="594" y="822" on="0"/>
      </contour>
    </TTGlyph>
    <TTGlyph name="u1F35E" xMin="0" yMin="0" xMax="1024" yMax="1024">
      <contour>
        <pt x="1024" y="1024" on="1"/>
        <pt x="0" y="0" on="1"/>
      </contour>
    </TTGlyph>
</ttFont>
